PathFileType	4	(x/y/z)	S09_P20_T27
DataRate	CameraRate	NumFrames	NumMarkers	Units	OrigDataRate	OrigDataStartFrame	OrigNumFrames
240	240	10	51	mm	240	247	394
Frame#	Time	Sternum			R.Acromium			L.Acromium			Top.Head			R.ASIS			L.ASIS			R.PSIS			L.PSIS			R.Great.Tro			L.Great.Tro			R.Iliac.Crest			L.Iliac.Crest			V.Sacral			R.Thigh.Upper.Post			R.Thigh.Lower.Ant			R.Thigh.Lower.Post			R.Thigh.Upper.Ant			R.Knee.Lat			R.Knee.Med			R.Shank.Upper.Post			R.Shank.Lower.Ant			R.Shank.Lower.Post			R.Shank.Upper.Ant			R.Ankle.Lat			R.Ankle.Med			R.Heel.Upper			R.Heel.Med			R.Heel.Lat			R.Toe.Lat			R.Toe.Med			R.Toe.Tip			L.Thigh.Upper.Post			L.Thigh.Lower.Ant			L.Thigh.Lower.Post			L.Thigh.Upper.Ant			L.Knee.Lat			L.Knee.Med			L.Shank.Upper.Post			L.Shank.Lower.Ant			L.Shank.Lower.Post			L.Shank.Upper.Ant			L.Ankle.Lat			L.Ankle.Med			L.Heel.Upper			L.Heel.Med			L.Heel.Lat			L.Toe.Lat			L.Toe.Med			L.Toe.Tip			Cervical.Spine			Back			
		X1	Y1	Z1	X2	Y2	Z2	X3	Y3	Z3	X4	Y4	Z4	X5	Y5	Z5	X6	Y6	Z6	X7	Y7	Z7	X8	Y8	Z8	X9	Y9	Z9	X10	Y10	Z10	X11	Y11	Z11	X12	Y12	Z12	X13	Y13	Z13	X14	Y14	Z14	X15	Y15	Z15	X16	Y16	Z16	X17	Y17	Z17	X18	Y18	Z18	X19	Y19	Z19	X20	Y20	Z20	X21	Y21	Z21	X22	Y22	Z22	X23	Y23	Z23	X24	Y24	Z24	X25	Y25	Z25	X26	Y26	Z26	X27	Y27	Z27	X28	Y28	Z28	X29	Y29	Z29	X30	Y30	Z30	X31	Y31	Z31	X32	Y32	Z32	X33	Y33	Z33	X34	Y34	Z34	X35	Y35	Z35	X36	Y36	Z36	X37	Y37	Z37	X38	Y38	Z38	X39	Y39	Z39	X40	Y40	Z40	X41	Y41	Z41	X42	Y42	Z42	X43	Y43	Z43	X44	Y44	Z44	X45	Y45	Z45	X46	Y46	Z46	X47	Y47	Z47	X48	Y48	Z48	X49	Y49	Z49	X50	Y50	Z50	X51	Y51	Z51	

247	1.025	13.767	1176.8	310.91	-117.18	1421.3	457.21	-123.56	1423.5	144.7	-112.92	1732.7	294.74	-56.844	1003.4	418.88	-47.855	1008.8	173.1	-271.6	1040	330.38	-263.85	1035.9	241.46	-157.8	926.85	487.6	-114.6	919.67	101.66	-140.48	1088.4	456.86	-149.22	1103.4	134.85	-290.07	1005.7	282.58	-221.33	689.15	448.94	-173.48	573.94	413.33	-247	602.88	417.75	-156.21	658.96	442.77	-220.17	504.14	399.28	-219.26	499.89	277.28	-356.12	371.94	399.23	-318.92	289.09	385.91	-390.31	304.48	386.96	-291.36	356.84	400.46	-444.88	124.66	362.7	-413.45	125.91	276.84	-515.19	119.14	311.45	-512.5	84.643	284.4	-519.85	90.494	348.63	-369.94	42.648	405.21	-318.17	38.435	300.79	-270.44	44.33	349.1	-112.95	655.71	145.7	-8.5686	583.73	144.33	-74.5	573.93	164.87	-44.917	662.3	120.53	2.31	507.86	155.59	13.958	523.68	290.02	1.6709	368.58	144.16	92.32	305.58	154.24	28.296	296.12	148.54	64.87	378.21	150.68	126.38	113.2	168.5	145.35	118.03	259.87	78.436	58.44	224.41	99.006	42.143	257.07	87.964	30.346	197.1	246.2	86.015	136.67	279.57	112.46	242.46	315	147.26	180.8	-208.06	1475.5	311.74	-252.12	1209.4	295.47
248	1.0292	19.841	1176.4	310.19	-111.28	1420.8	456.62	-117.6	1423.2	144.09	-107.31	1732.3	294.39	-50.863	1003	418.4	-41.558	1008.4	172.62	-265.57	1039.4	329.64	-257.66	1035.4	240.71	-151.89	926.34	487.04	-107.92	919.29	101.19	-134.59	1088	456.24	-142.98	1103	134.23	-283.97	1005.1	281.84	-214.72	688.38	448.45	-166.59	573.25	412.95	-240.18	602.03	417.29	-149.54	658.34	442.3	-213.35	503.29	399.05	-212.45	499.09	277.02	-350.8	372.73	399.18	-314.8	289.34	385.74	-385.86	305.7	386.89	-286.33	356.72	400.23	-443.06	126.72	362.77	-411.4	127.49	276.9	-513.33	122.19	311.37	-511.1	87.734	284.2	-518.49	93.497	348.44	-369.56	43.07	405.12	-317.72	38.406	300.88	-270.21	44.135	349.18	-106.45	655.44	145.45	-2.13	583.47	144.65	-68.157	573.65	164.73	-38.302	662.03	120.62	8.5532	507.46	155.76	20.15	523.51	289.98	6.7888	368.22	144.35	96.801	304.4	154.82	32.73	295.52	148.82	70.036	377.27	151.15	128.98	112.12	169.02	147.45	116.41	260.55	79.983	58.82	224.43	100.1	42.057	257.24	89.112	30.565	197.22	248.45	83.45	137.89	281.55	109.28	243.88	317.8	143.71	182.35	-202.13	1475.1	311.14	-246.1	1208.9	294.76
249	1.0333	25.918	1175.9	309.45	-105.38	1420.2	456.02	-111.61	1422.9	143.47	-101.71	1732	294.04	-44.865	1002.7	417.9	-35.26	1008.2	172.14	-259.53	1038.9	328.91	-251.46	1034.9	239.96	-145.92	925.84	486.47	-101.23	918.97	100.7	-128.69	1087.6	455.61	-136.74	1102.7	133.6	-277.85	1004.6	281.09	-207.94	687.58	447.96	-159.48	572.55	412.56	-233.15	601.13	416.84	-142.67	657.72	441.83	-206.28	502.42	398.86	-205.42	498.28	276.8	-345.28	373.55	399.15	-310.5	289.64	385.61	-381.21	306.97	386.82	-281.12	356.62	400.03	-441.09	128.9	362.83	-409.18	129.17	276.96	-511.28	125.43	311.26	-509.53	91.028	283.95	-516.96	96.701	348.21	-369.16	43.55	405.01	-317.24	38.371	300.97	-270	43.945	349.26	-99.955	655.23	145.17	4.2836	583.26	144.93	-61.833	573.41	164.55	-31.698	661.8	120.68	14.751	507.09	155.88	26.322	523.36	289.9	11.839	367.9	144.51	101.2	303.25	155.34	37.083	294.97	149.07	75.132	376.37	151.57	131.42	111.08	169.48	149.44	114.82	261.15	81.358	59.243	224.42	101.02	42.012	257.36	90.058	30.829	197.3	250.47	80.835	138.99	283.39	106.03	245.15	320.46	140.03	183.75	-196.19	1474.7	310.54	-240.07	1208.5	294.04
250	1.0375	31.999	1175.5	308.69	-99.472	1419.7	455.41	-105.62	1422.7	142.85	-96.106	1731.7	293.69	-38.854	1002.4	417.39	-28.964	1008	171.65	-253.48	1038.4	328.17	-245.25	1034.4	239.2	-139.9	925.35	485.87	-94.54	918.71	100.19	-122.78	1087.3	454.96	-130.49	1102.4	132.95	-271.71	1004.1	280.33	-200.98	686.76	447.47	-152.14	571.85	412.19	-225.9	600.2	416.4	-135.61	657.11	441.35	-198.97	501.54	398.7	-198.15	497.44	276.63	-339.55	374.4	399.14	-306.01	289.99	385.52	-376.37	308.3	386.75	-275.73	356.56	399.87	-438.96	131.2	362.9	-406.78	130.95	277.04	-509	128.86	311.13	-507.76	94.53	283.67	-515.27	100.11	347.93	-368.74	44.091	404.89	-316.74	38.335	301.07	-269.8	43.758	349.33	-93.485	655.07	144.87	10.662	583.09	145.18	-55.537	573.23	164.35	-25.117	661.63	120.73	20.899	506.77	155.95	32.453	523.23	289.78	16.834	367.64	144.63	105.53	302.16	155.8	41.374	294.47	149.29	80.169	375.51	151.93	133.73	110.09	169.88	151.33	113.29	261.68	82.588	59.704	224.38	101.81	42.008	257.45	90.838	31.134	197.36	252.3	78.199	139.98	285.12	102.72	246.27	323	136.26	184.98	-190.24	1474.4	309.93	-234.03	1208.1	293.31
251	1.0417	38.081	1175.1	307.93	-93.56	1419.3	454.79	-99.598	1422.5	142.22	-90.506	1731.5	293.34	-32.83	1002.2	416.86	-22.674	1007.8	171.15	-247.43	1037.9	327.43	-239.04	1034	238.44	-133.83	924.87	485.26	-87.844	918.51	99.651	-116.86	1087	454.31	-124.23	1102.2	132.3	-265.55	1003.6	279.56	-193.83	685.93	446.99	-144.58	571.16	411.84	-218.44	599.24	415.98	-128.37	656.51	440.88	-191.42	500.63	398.58	-190.64	496.57	276.51	-333.61	375.3	399.14	-301.32	290.38	385.48	-371.33	309.7	386.7	-270.15	356.52	399.76	-436.66	133.61	362.97	-404.17	132.82	277.13	-506.48	132.49	310.97	-505.76	98.247	283.34	-513.39	103.74	347.62	-368.28	44.7	404.75	-316.21	38.298	301.16	-269.63	43.573	349.4	-87.046	654.98	144.54	16.999	582.98	145.38	-49.28	573.11	164.1	-18.567	661.53	120.75	26.993	506.5	155.96	38.525	523.12	289.63	21.783	367.44	144.71	109.81	301.12	156.2	45.615	294.04	149.45	85.157	374.72	152.23	135.91	109.14	170.21	153.13	111.83	262.14	83.696	60.195	224.32	102.48	42.047	257.51	91.484	31.473	197.38	253.96	75.566	140.85	286.74	99.392	247.25	325.42	132.43	186.05	-184.28	1474.1	309.31	-227.98	1207.8	292.58
252	1.0458	44.165	1174.8	307.15	-87.648	1418.9	454.17	-93.563	1422.4	141.58	-84.906	1731.3	292.98	-26.797	1002	416.32	-16.394	1007.7	170.65	-241.38	1037.4	326.68	-232.84	1033.6	237.68	-127.7	924.41	484.62	-81.157	918.38	99.095	-110.94	1086.7	453.64	-117.96	1102.1	131.63	-259.38	1003.1	278.79	-186.51	685.08	446.53	-136.79	570.47	411.52	-210.76	598.26	415.6	-120.93	655.93	440.42	-183.63	499.72	398.52	-182.89	495.68	276.45	-327.46	376.25	399.17	-296.43	290.83	385.5	-366.08	311.17	386.66	-264.37	356.53	399.71	-434.17	136.13	363.05	-401.36	134.77	277.25	-503.7	136.32	310.78	-503.52	102.18	282.98	-511.29	107.58	347.26	-367.8	45.381	404.58	-315.65	38.266	301.26	-269.47	43.388	349.47	-80.646	654.96	144.17	23.288	582.92	145.52	-43.067	573.05	163.81	-12.056	661.49	120.73	33.033	506.28	155.91	44.522	523.03	289.44	26.695	367.3	144.73	114.04	300.15	156.53	49.817	293.67	149.56	90.102	373.98	152.47	137.98	108.25	170.48	154.87	110.45	262.51	84.701	60.708	224.23	103.06	42.127	257.54	92.023	31.84	197.38	255.46	72.96	141.6	288.27	96.081	248.08	327.74	128.57	186.97	-178.32	1473.9	308.68	-221.92	1207.5	291.83
253	1.05	50.249	1174.5	306.36	-81.737	1418.5	453.53	-87.512	1422.4	140.95	-79.304	1731.2	292.63	-20.755	1001.9	415.78	-10.13	1007.7	170.15	-235.33	1036.9	325.94	-226.64	1033.3	236.92	-121.53	923.97	483.97	-74.486	918.33	98.518	-105.02	1086.4	452.97	-111.69	1102	130.95	-253.2	1002.6	278	-179.02	684.23	446.08	-128.79	569.79	411.24	-202.88	597.25	415.25	-113.31	655.37	439.99	-175.61	498.81	398.51	-174.88	494.76	276.46	-321.09	377.24	399.22	-291.34	291.35	385.57	-360.62	312.71	386.63	-258.39	356.58	399.72	-431.47	138.77	363.13	-398.32	136.82	277.4	-500.63	140.35	310.57	-501.02	106.34	282.57	-508.98	111.64	346.85	-367.28	46.141	404.4	-315.06	38.243	301.36	-269.33	43.202	349.54	-74.29	655	143.76	29.528	582.92	145.6	-36.902	573.06	163.47	-5.5893	661.52	120.67	39.022	506.12	155.8	50.43	522.96	289.22	31.575	367.22	144.69	118.24	299.27	156.8	53.986	293.38	149.6	95.009	373.32	152.63	139.95	107.42	170.68	156.55	109.16	262.81	85.618	61.236	224.12	103.57	42.244	257.54	92.476	32.228	197.36	256.84	70.402	142.24	289.72	92.816	248.79	329.97	124.72	187.74	-172.35	1473.7	308.04	-215.86	1207.3	291.08
254	1.0542	56.331	1174.3	305.57	-75.829	1418.2	452.9	-81.443	1422.4	140.31	-73.701	1731.1	292.28	-14.709	1001.8	415.22	-3.8861	1007.7	169.64	-229.28	1036.5	325.2	-220.46	1033.1	236.16	-115.3	923.55	483.3	-67.841	918.37	97.923	-99.107	1086.2	452.28	-105.41	1102	130.27	-247.01	1002.2	277.22	-171.36	683.37	445.67	-120.58	569.13	411.02	-194.8	596.22	414.94	-105.51	654.83	439.59	-167.36	497.89	398.56	-166.63	493.82	276.55	-314.5	378.29	399.3	-286.04	291.92	385.71	-354.95	314.32	386.63	-252.21	356.68	399.8	-428.56	141.51	363.22	-395.04	138.95	277.59	-497.25	144.57	310.34	-498.24	110.72	282.13	-506.41	115.93	346.4	-366.72	46.985	404.21	-314.44	38.235	301.47	-269.2	43.013	349.61	-67.981	655.12	143.31	35.72	582.98	145.59	-30.787	573.13	163.07	0.82847	661.62	120.55	44.964	506.02	155.63	56.241	522.93	288.95	36.426	367.22	144.57	122.39	298.46	156.99	58.122	293.17	149.59	99.88	372.73	152.73	141.82	106.66	170.82	158.16	107.96	263.04	86.461	61.771	224	104.01	42.396	257.52	92.862	32.63	197.31	258.09	67.911	142.78	291.1	89.62	249.37	332.09	120.92	188.39	-166.37	1473.6	307.39	-209.79	1207.1	290.31
255	1.0583	62.41	1174.2	304.78	-69.926	1418	452.26	-75.359	1422.4	139.67	-68.095	1731	291.93	-8.6598	1001.8	414.66	2.334	1007.8	169.14	-223.23	1036.1	324.47	-214.29	1032.9	235.41	-109.02	923.15	482.62	-61.231	918.49	97.309	-93.195	1086.1	451.59	-99.124	1102.1	129.58	-240.83	1001.8	276.43	-163.54	682.52	445.28	-112.16	568.48	410.86	-186.51	595.18	414.69	-97.542	654.33	439.24	-158.89	496.98	398.69	-158.11	492.84	276.72	-307.69	379.38	399.4	-280.52	292.57	385.92	-349.04	316	386.65	-245.82	356.83	399.96	-425.42	144.35	363.32	-391.52	141.16	277.8	-493.55	148.99	310.1	-495.15	115.32	281.65	-503.58	120.43	345.91	-366.11	47.92	403.99	-313.77	38.249	301.58	-269.09	42.818	349.68	-61.719	655.3	142.81	41.865	583.1	145.51	-24.72	573.28	162.61	7.1963	661.79	120.39	50.866	505.99	155.4	61.952	522.92	288.64	41.247	367.28	144.39	126.51	297.72	157.11	62.224	293.03	149.5	104.71	372.21	152.76	143.6	105.96	170.9	159.72	106.87	263.19	87.238	62.305	223.86	104.41	42.578	257.47	93.196	33.039	197.24	259.24	65.504	143.21	292.41	86.518	249.85	334.12	117.17	188.91	-160.38	1473.5	306.74	-203.73	1207	289.54
256	1.0625	68.482	1174.1	303.99	-64.029	1417.8	451.62	-69.259	1422.5	139.03	-62.485	1731	291.57	-2.6103	1001.8	414.09	8.5261	1008	168.63	-217.19	1035.7	323.75	-208.14	1032.8	234.66	-102.7	922.78	481.92	-54.667	918.71	96.677	-87.286	1085.9	450.9	-92.839	1102.2	128.89	-234.64	1001.5	275.65	-155.56	681.67	444.94	-103.54	567.86	410.78	-178.05	594.13	414.49	-89.411	653.85	438.95	-150.2	496.08	398.88	-149.34	491.83	276.98	-300.65	380.53	399.54	-274.79	293.29	386.2	-342.92	317.76	386.7	-239.21	357.03	400.21	-422.03	147.29	363.43	-387.73	143.44	278.06	-489.5	153.6	309.84	-491.73	120.14	281.14	-500.46	125.16	345.38	-365.46	48.954	403.76	-313.06	38.292	301.7	-268.98	42.617	349.75	-55.504	655.56	142.25	47.968	583.29	145.34	-18.698	573.49	162.1	13.514	662.03	120.16	56.733	506.02	155.12	67.563	522.95	288.3	46.036	367.42	144.13	130.58	297.07	157.16	66.288	292.97	149.34	109.51	371.76	152.72	145.28	105.32	170.92	161.21	105.89	263.27	87.958	62.833	223.7	104.76	42.784	257.41	93.489	33.449	197.16	260.3	63.195	143.56	293.64	83.529	250.22	336.05	113.52	189.33	-154.4	1473.5	306.08	-197.67	1207	288.76
